<svg xmlns="http://www.w3.org/2000/svg" width="1848" height="1138" viewBox="0 0 1848 1138">
<rect x="0.0" y="0.0" width="1848.0" height="1138.0" rx="0" ry="0" fill="#ffffff" stroke="#ffffff" stroke-width="0" opacity="1.0" />
<text x="924.0" y="28.0" font-size="23" fill="#000" text-anchor="middle" font-weight="bold" font-family="Arial">RL_special Calibration Quadrant Sweep</text>
<text x="924.0" y="51.0" font-size="13" fill="#555555" text-anchor="middle" font-weight="normal" font-family="Arial">Each panel is centered on the offset-applied target. Cart rectangle, target dot, and quadrant axes stay fixed.</text>
<text x="22.0" y="210.0" font-size="18" fill="#000" text-anchor="middle" font-weight="bold" font-family="Arial">Q1</text>
<text x="22.0" y="232.0" font-size="9" fill="#555555" text-anchor="middle" font-weight="normal" font-family="Arial">x=+0.21</text>
<text x="22.0" y="246.0" font-size="9" fill="#555555" text-anchor="middle" font-weight="normal" font-family="Arial">y=+0.16</text>
<rect x="56.0" y="114.0" width="212.0" height="212.0" rx="6" ry="6" fill="#fcfcfb" stroke="#dddddd" stroke-width="1" opacity="1.0" />
<text x="162.0" y="132.0" font-size="11" fill="#000" text-anchor="middle" font-weight="bold" font-family="Arial">rear 1 start</text>
<line x1="80.0" y1="220.0" x2="244.0" y2="220.0" stroke="#d9d9d9" stroke-width="0.8" fill="none" />
<line x1="162.0" y1="138.0" x2="162.0" y2="302.0" stroke="#d9d9d9" stroke-width="0.8" fill="none" />
<rect x="202.2" y="203.1" width="51.5" height="33.8" rx="2" ry="2" fill="#f7d7d4" stroke="#777777" stroke-width="1" opacity="0.58" />
<line x1="202.2" y1="220.0" x2="162.0" y2="220.0" stroke="#777777" stroke-width="1.2" fill="none" stroke-dasharray="4 4" />
<circle cx="162.0" cy="220.0" r="5" fill="#ff7f0e" stroke="#ffffff" stroke-width="2" opacity="1.0" />
<polygon points="175.6,206.1 166.1,196.5 162.2,208.2" fill="#d62728" stroke="#d62728" stroke-width="1" opacity="1.0" />
<circle cx="178.9" cy="207.1" r="2.5" fill="#111111" stroke="#111111" stroke-width="1" opacity="1.0" />
<text x="66.0" y="290.0" font-size="8.4" fill="#333333" font-family="Courier New" xml:space="preserve"><tspan x="66.0" dy="0">target centered</tspan><tspan x="66.0" dy="11">yaw=+18deg</tspan></text>
<rect x="280.0" y="114.0" width="212.0" height="212.0" rx="6" ry="6" fill="#fcfcfb" stroke="#dddddd" stroke-width="1" opacity="1.0" />
<text x="386.0" y="132.0" font-size="11" fill="#000" text-anchor="middle" font-weight="bold" font-family="Arial">rear 2 rotate</text>
<line x1="304.0" y1="220.0" x2="468.0" y2="220.0" stroke="#d9d9d9" stroke-width="0.8" fill="none" />
<line x1="386.0" y1="138.0" x2="386.0" y2="302.0" stroke="#d9d9d9" stroke-width="0.8" fill="none" />
<rect x="426.2" y="203.1" width="51.5" height="33.8" rx="2" ry="2" fill="#f7d7d4" stroke="#777777" stroke-width="1" opacity="0.58" />
<line x1="426.2" y1="220.0" x2="386.0" y2="220.0" stroke="#777777" stroke-width="1.2" fill="none" stroke-dasharray="4 4" />
<circle cx="386.0" cy="220.0" r="5" fill="#ff7f0e" stroke="#ffffff" stroke-width="2" opacity="1.0" />
<line x1="402.9" y1="207.1" x2="386.0" y2="220.0" stroke="#d62728" stroke-width="1.8" fill="none" stroke-dasharray="6 4" />
<polygon points="383.2,222.1 369.9,224.5 377.4,234.3" fill="#d62728" stroke="#d62728" stroke-width="1" opacity="0.28" />
<polygon points="400.1,209.3 386.8,211.6 394.3,221.5" fill="#d62728" stroke="#d62728" stroke-width="1" opacity="1.0" />
<circle cx="402.9" cy="207.1" r="2.5" fill="#111111" stroke="#111111" stroke-width="1" opacity="1.0" />
<text x="290.0" y="290.0" font-size="8.4" fill="#333333" font-family="Courier New" xml:space="preserve"><tspan x="290.0" dy="0">turn=+55.3deg</tspan><tspan x="290.0" dy="11">faint=after 0.26m</tspan></text>
<rect x="504.0" y="114.0" width="212.0" height="212.0" rx="6" ry="6" fill="#fcfcfb" stroke="#dddddd" stroke-width="1" opacity="1.0" />
<text x="610.0" y="132.0" font-size="11" fill="#000" text-anchor="middle" font-weight="bold" font-family="Arial">rear 3 move</text>
<line x1="528.0" y1="220.0" x2="692.0" y2="220.0" stroke="#d9d9d9" stroke-width="0.8" fill="none" />
<line x1="610.0" y1="138.0" x2="610.0" y2="302.0" stroke="#d9d9d9" stroke-width="0.8" fill="none" />
<rect x="650.2" y="203.1" width="51.5" height="33.8" rx="2" ry="2" fill="#f7d7d4" stroke="#777777" stroke-width="1" opacity="0.58" />
<line x1="650.2" y1="220.0" x2="610.0" y2="220.0" stroke="#777777" stroke-width="1.2" fill="none" stroke-dasharray="4 4" />
<circle cx="610.0" cy="220.0" r="5" fill="#ff7f0e" stroke="#ffffff" stroke-width="2" opacity="1.0" />
<polygon points="607.2,222.1 593.9,224.5 601.4,234.3" fill="#d62728" stroke="#d62728" stroke-width="1" opacity="1.0" />
<circle cx="610.0" cy="220.0" r="2.5" fill="#111111" stroke="#111111" stroke-width="1" opacity="1.0" />
<text x="514.0" y="290.0" font-size="8.4" fill="#333333" font-family="Courier New" xml:space="preserve"><tspan x="514.0" dy="0">on target x-axis</tspan><tspan x="514.0" dy="11">move=0.26m</tspan><tspan x="514.0" dy="11">y_T=+0.000m</tspan></text>
<rect x="728.0" y="114.0" width="212.0" height="212.0" rx="6" ry="6" fill="#fcfcfb" stroke="#dddddd" stroke-width="1" opacity="1.0" />
<text x="834.0" y="132.0" font-size="11" fill="#000" text-anchor="middle" font-weight="bold" font-family="Arial">rear 4 yaw</text>
<line x1="752.0" y1="220.0" x2="916.0" y2="220.0" stroke="#d9d9d9" stroke-width="0.8" fill="none" />
<line x1="834.0" y1="138.0" x2="834.0" y2="302.0" stroke="#d9d9d9" stroke-width="0.8" fill="none" />
<rect x="874.2" y="203.1" width="51.5" height="33.8" rx="2" ry="2" fill="#f7d7d4" stroke="#777777" stroke-width="1" opacity="0.58" />
<line x1="874.2" y1="220.0" x2="834.0" y2="220.0" stroke="#777777" stroke-width="1.2" fill="none" stroke-dasharray="4 4" />
<circle cx="834.0" cy="220.0" r="5" fill="#ff7f0e" stroke="#ffffff" stroke-width="2" opacity="1.0" />
<polygon points="830.5,220.0 818.5,213.8 818.5,226.2" fill="#d62728" stroke="#d62728" stroke-width="1" opacity="1.0" />
<circle cx="834.0" cy="220.0" r="2.5" fill="#111111" stroke="#111111" stroke-width="1" opacity="1.0" />
<text x="738.0" y="290.0" font-size="8.4" fill="#333333" font-family="Courier New" xml:space="preserve"><tspan x="738.0" dy="0">turn=-37.3deg</tspan><tspan x="738.0" dy="11">final yaw=+0deg</tspan></text>
<line x1="946.0" y1="124.0" x2="946.0" y2="316.0" stroke="#eeeeee" stroke-width="1" fill="none" />
<rect x="952.0" y="114.0" width="212.0" height="212.0" rx="6" ry="6" fill="#fcfcfb" stroke="#dddddd" stroke-width="1" opacity="1.0" />
<text x="1058.0" y="132.0" font-size="11" fill="#000" text-anchor="middle" font-weight="bold" font-family="Arial">front 1 start</text>
<line x1="976.0" y1="220.0" x2="1140.0" y2="220.0" stroke="#d9d9d9" stroke-width="0.8" fill="none" />
<line x1="1058.0" y1="138.0" x2="1058.0" y2="302.0" stroke="#d9d9d9" stroke-width="0.8" fill="none" />
<rect x="962.3" y="203.1" width="51.5" height="33.8" rx="2" ry="2" fill="#d8e7fb" stroke="#777777" stroke-width="1" opacity="0.58" />
<line x1="1013.8" y1="220.0" x2="1058.0" y2="220.0" stroke="#777777" stroke-width="1.2" fill="none" stroke-dasharray="4 4" />
<circle cx="1058.0" cy="220.0" r="5" fill="#ff7f0e" stroke="#ffffff" stroke-width="2" opacity="1.0" />
<polygon points="1071.6,206.1 1062.1,196.5 1058.2,208.2" fill="#1f77b4" stroke="#1f77b4" stroke-width="1" opacity="1.0" />
<circle cx="1074.9" cy="207.1" r="2.5" fill="#111111" stroke="#111111" stroke-width="1" opacity="1.0" />
<text x="962.0" y="290.0" font-size="8.4" fill="#333333" font-family="Courier New" xml:space="preserve"><tspan x="962.0" dy="0">target centered</tspan><tspan x="962.0" dy="11">yaw=+18deg</tspan></text>
<rect x="1176.0" y="114.0" width="212.0" height="212.0" rx="6" ry="6" fill="#fcfcfb" stroke="#dddddd" stroke-width="1" opacity="1.0" />
<text x="1282.0" y="132.0" font-size="11" fill="#000" text-anchor="middle" font-weight="bold" font-family="Arial">front 2 rotate</text>
<line x1="1200.0" y1="220.0" x2="1364.0" y2="220.0" stroke="#d9d9d9" stroke-width="0.8" fill="none" />
<line x1="1282.0" y1="138.0" x2="1282.0" y2="302.0" stroke="#d9d9d9" stroke-width="0.8" fill="none" />
<rect x="1186.3" y="203.1" width="51.5" height="33.8" rx="2" ry="2" fill="#d8e7fb" stroke="#777777" stroke-width="1" opacity="0.58" />
<line x1="1237.8" y1="220.0" x2="1282.0" y2="220.0" stroke="#777777" stroke-width="1.2" fill="none" stroke-dasharray="4 4" />
<circle cx="1282.0" cy="220.0" r="5" fill="#ff7f0e" stroke="#ffffff" stroke-width="2" opacity="1.0" />
<line x1="1298.9" y1="207.1" x2="1298.9" y2="220.0" stroke="#1f77b4" stroke-width="1.8" fill="none" stroke-dasharray="6 4" />
<polygon points="1298.9,216.5 1305.1,204.5 1292.7,204.5" fill="#1f77b4" stroke="#1f77b4" stroke-width="1" opacity="0.28" />
<polygon points="1298.9,203.6 1305.1,191.6 1292.7,191.6" fill="#1f77b4" stroke="#1f77b4" stroke-width="1" opacity="1.0" />
<circle cx="1298.9" cy="207.1" r="2.5" fill="#111111" stroke="#111111" stroke-width="1" opacity="1.0" />
<text x="1186.0" y="290.0" font-size="8.4" fill="#333333" font-family="Courier New" xml:space="preserve"><tspan x="1186.0" dy="0">turn=-72.0deg</tspan><tspan x="1186.0" dy="11">faint=after 0.16m</tspan></text>
<rect x="1400.0" y="114.0" width="212.0" height="212.0" rx="6" ry="6" fill="#fcfcfb" stroke="#dddddd" stroke-width="1" opacity="1.0" />
<text x="1506.0" y="132.0" font-size="11" fill="#000" text-anchor="middle" font-weight="bold" font-family="Arial">front 3 move</text>
<line x1="1424.0" y1="220.0" x2="1588.0" y2="220.0" stroke="#d9d9d9" stroke-width="0.8" fill="none" />
<line x1="1506.0" y1="138.0" x2="1506.0" y2="302.0" stroke="#d9d9d9" stroke-width="0.8" fill="none" />
<rect x="1410.3" y="203.1" width="51.5" height="33.8" rx="2" ry="2" fill="#d8e7fb" stroke="#777777" stroke-width="1" opacity="0.58" />
<line x1="1461.8" y1="220.0" x2="1506.0" y2="220.0" stroke="#777777" stroke-width="1.2" fill="none" stroke-dasharray="4 4" />
<circle cx="1506.0" cy="220.0" r="5" fill="#ff7f0e" stroke="#ffffff" stroke-width="2" opacity="1.0" />
<polygon points="1522.9,216.5 1529.1,204.5 1516.7,204.5" fill="#1f77b4" stroke="#1f77b4" stroke-width="1" opacity="1.0" />
<circle cx="1522.9" cy="220.0" r="2.5" fill="#111111" stroke="#111111" stroke-width="1" opacity="1.0" />
<text x="1410.0" y="290.0" font-size="8.4" fill="#333333" font-family="Courier New" xml:space="preserve"><tspan x="1410.0" dy="0">on target x-axis</tspan><tspan x="1410.0" dy="11">move=0.16m</tspan><tspan x="1410.0" dy="11">y_T=+0.000m</tspan></text>
<rect x="1624.0" y="114.0" width="212.0" height="212.0" rx="6" ry="6" fill="#fcfcfb" stroke="#dddddd" stroke-width="1" opacity="1.0" />
<text x="1730.0" y="132.0" font-size="11" fill="#000" text-anchor="middle" font-weight="bold" font-family="Arial">front 4 yaw</text>
<line x1="1648.0" y1="220.0" x2="1812.0" y2="220.0" stroke="#d9d9d9" stroke-width="0.8" fill="none" />
<line x1="1730.0" y1="138.0" x2="1730.0" y2="302.0" stroke="#d9d9d9" stroke-width="0.8" fill="none" />
<rect x="1634.3" y="203.1" width="51.5" height="33.8" rx="2" ry="2" fill="#d8e7fb" stroke="#777777" stroke-width="1" opacity="0.58" />
<line x1="1685.8" y1="220.0" x2="1730.0" y2="220.0" stroke="#777777" stroke-width="1.2" fill="none" stroke-dasharray="4 4" />
<circle cx="1730.0" cy="220.0" r="5" fill="#ff7f0e" stroke="#ffffff" stroke-width="2" opacity="1.0" />
<polygon points="1743.4,220.0 1731.4,213.8 1731.4,226.2" fill="#1f77b4" stroke="#1f77b4" stroke-width="1" opacity="1.0" />
<circle cx="1746.9" cy="220.0" r="2.5" fill="#111111" stroke="#111111" stroke-width="1" opacity="1.0" />
<text x="1634.0" y="290.0" font-size="8.4" fill="#333333" font-family="Courier New" xml:space="preserve"><tspan x="1634.0" dy="0">turn=+90.0deg</tspan><tspan x="1634.0" dy="11">final yaw=+0deg</tspan></text>
<line x1="1842.0" y1="124.0" x2="1842.0" y2="316.0" stroke="#eeeeee" stroke-width="1" fill="none" />
<text x="22.0" y="466.0" font-size="18" fill="#000" text-anchor="middle" font-weight="bold" font-family="Arial">Q2</text>
<text x="22.0" y="488.0" font-size="9" fill="#555555" text-anchor="middle" font-weight="normal" font-family="Arial">x=-0.21</text>
<text x="22.0" y="502.0" font-size="9" fill="#555555" text-anchor="middle" font-weight="normal" font-family="Arial">y=+0.16</text>
<rect x="56.0" y="370.0" width="212.0" height="212.0" rx="6" ry="6" fill="#fcfcfb" stroke="#dddddd" stroke-width="1" opacity="1.0" />
<text x="162.0" y="388.0" font-size="11" fill="#000" text-anchor="middle" font-weight="bold" font-family="Arial">rear 1 start</text>
<line x1="80.0" y1="476.0" x2="244.0" y2="476.0" stroke="#d9d9d9" stroke-width="0.8" fill="none" />
<line x1="162.0" y1="394.0" x2="162.0" y2="558.0" stroke="#d9d9d9" stroke-width="0.8" fill="none" />
<rect x="202.2" y="459.1" width="51.5" height="33.8" rx="2" ry="2" fill="#f7d7d4" stroke="#777777" stroke-width="1" opacity="0.58" />
<line x1="202.2" y1="476.0" x2="162.0" y2="476.0" stroke="#777777" stroke-width="1.2" fill="none" stroke-dasharray="4 4" />
<circle cx="162.0" cy="476.0" r="5" fill="#ff7f0e" stroke="#ffffff" stroke-width="2" opacity="1.0" />
<polygon points="141.8,462.1 132.3,452.5 128.5,464.2" fill="#d62728" stroke="#d62728" stroke-width="1" opacity="1.0" />
<circle cx="145.1" cy="463.1" r="2.5" fill="#111111" stroke="#111111" stroke-width="1" opacity="1.0" />
<text x="66.0" y="546.0" font-size="8.4" fill="#333333" font-family="Courier New" xml:space="preserve"><tspan x="66.0" dy="0">target centered</tspan><tspan x="66.0" dy="11">yaw=+18deg</tspan></text>
<rect x="280.0" y="370.0" width="212.0" height="212.0" rx="6" ry="6" fill="#fcfcfb" stroke="#dddddd" stroke-width="1" opacity="1.0" />
<text x="386.0" y="388.0" font-size="11" fill="#000" text-anchor="middle" font-weight="bold" font-family="Arial">rear 2 rotate</text>
<line x1="304.0" y1="476.0" x2="468.0" y2="476.0" stroke="#d9d9d9" stroke-width="0.8" fill="none" />
<line x1="386.0" y1="394.0" x2="386.0" y2="558.0" stroke="#d9d9d9" stroke-width="0.8" fill="none" />
<rect x="426.2" y="459.1" width="51.5" height="33.8" rx="2" ry="2" fill="#f7d7d4" stroke="#777777" stroke-width="1" opacity="0.58" />
<line x1="426.2" y1="476.0" x2="386.0" y2="476.0" stroke="#777777" stroke-width="1.2" fill="none" stroke-dasharray="4 4" />
<circle cx="386.0" cy="476.0" r="5" fill="#ff7f0e" stroke="#ffffff" stroke-width="2" opacity="1.0" />
<line x1="369.1" y1="463.1" x2="369.1" y2="476.0" stroke="#d62728" stroke-width="1.8" fill="none" stroke-dasharray="6 4" />
<polygon points="369.1,472.5 375.3,460.5 362.9,460.5" fill="#d62728" stroke="#d62728" stroke-width="1" opacity="0.28" />
<polygon points="369.1,459.6 375.3,447.6 362.9,447.6" fill="#d62728" stroke="#d62728" stroke-width="1" opacity="1.0" />
<circle cx="369.1" cy="463.1" r="2.5" fill="#111111" stroke="#111111" stroke-width="1" opacity="1.0" />
<text x="290.0" y="546.0" font-size="8.4" fill="#333333" font-family="Courier New" xml:space="preserve"><tspan x="290.0" dy="0">turn=-72.0deg</tspan><tspan x="290.0" dy="11">faint=after 0.16m</tspan></text>
<rect x="504.0" y="370.0" width="212.0" height="212.0" rx="6" ry="6" fill="#fcfcfb" stroke="#dddddd" stroke-width="1" opacity="1.0" />
<text x="610.0" y="388.0" font-size="11" fill="#000" text-anchor="middle" font-weight="bold" font-family="Arial">rear 3 move</text>
<line x1="528.0" y1="476.0" x2="692.0" y2="476.0" stroke="#d9d9d9" stroke-width="0.8" fill="none" />
<line x1="610.0" y1="394.0" x2="610.0" y2="558.0" stroke="#d9d9d9" stroke-width="0.8" fill="none" />
<rect x="650.2" y="459.1" width="51.5" height="33.8" rx="2" ry="2" fill="#f7d7d4" stroke="#777777" stroke-width="1" opacity="0.58" />
<line x1="650.2" y1="476.0" x2="610.0" y2="476.0" stroke="#777777" stroke-width="1.2" fill="none" stroke-dasharray="4 4" />
<circle cx="610.0" cy="476.0" r="5" fill="#ff7f0e" stroke="#ffffff" stroke-width="2" opacity="1.0" />
<polygon points="593.1,472.5 599.3,460.5 586.9,460.5" fill="#d62728" stroke="#d62728" stroke-width="1" opacity="1.0" />
<circle cx="593.1" cy="476.0" r="2.5" fill="#111111" stroke="#111111" stroke-width="1" opacity="1.0" />
<text x="514.0" y="546.0" font-size="8.4" fill="#333333" font-family="Courier New" xml:space="preserve"><tspan x="514.0" dy="0">on target x-axis</tspan><tspan x="514.0" dy="11">move=0.16m</tspan><tspan x="514.0" dy="11">y_T=+0.000m</tspan></text>
<rect x="728.0" y="370.0" width="212.0" height="212.0" rx="6" ry="6" fill="#fcfcfb" stroke="#dddddd" stroke-width="1" opacity="1.0" />
<text x="834.0" y="388.0" font-size="11" fill="#000" text-anchor="middle" font-weight="bold" font-family="Arial">rear 4 yaw</text>
<line x1="752.0" y1="476.0" x2="916.0" y2="476.0" stroke="#d9d9d9" stroke-width="0.8" fill="none" />
<line x1="834.0" y1="394.0" x2="834.0" y2="558.0" stroke="#d9d9d9" stroke-width="0.8" fill="none" />
<rect x="874.2" y="459.1" width="51.5" height="33.8" rx="2" ry="2" fill="#f7d7d4" stroke="#777777" stroke-width="1" opacity="0.58" />
<line x1="874.2" y1="476.0" x2="834.0" y2="476.0" stroke="#777777" stroke-width="1.2" fill="none" stroke-dasharray="4 4" />
<circle cx="834.0" cy="476.0" r="5" fill="#ff7f0e" stroke="#ffffff" stroke-width="2" opacity="1.0" />
<polygon points="813.6,476.0 801.6,469.8 801.6,482.2" fill="#d62728" stroke="#d62728" stroke-width="1" opacity="1.0" />
<circle cx="817.1" cy="476.0" r="2.5" fill="#111111" stroke="#111111" stroke-width="1" opacity="1.0" />
<text x="738.0" y="546.0" font-size="8.4" fill="#333333" font-family="Courier New" xml:space="preserve"><tspan x="738.0" dy="0">turn=+90.0deg</tspan><tspan x="738.0" dy="11">final yaw=+0deg</tspan></text>
<line x1="946.0" y1="380.0" x2="946.0" y2="572.0" stroke="#eeeeee" stroke-width="1" fill="none" />
<rect x="952.0" y="370.0" width="212.0" height="212.0" rx="6" ry="6" fill="#fcfcfb" stroke="#dddddd" stroke-width="1" opacity="1.0" />
<text x="1058.0" y="388.0" font-size="11" fill="#000" text-anchor="middle" font-weight="bold" font-family="Arial">front 1 start</text>
<line x1="976.0" y1="476.0" x2="1140.0" y2="476.0" stroke="#d9d9d9" stroke-width="0.8" fill="none" />
<line x1="1058.0" y1="394.0" x2="1058.0" y2="558.0" stroke="#d9d9d9" stroke-width="0.8" fill="none" />
<rect x="962.3" y="459.1" width="51.5" height="33.8" rx="2" ry="2" fill="#d8e7fb" stroke="#777777" stroke-width="1" opacity="0.58" />
<line x1="1013.8" y1="476.0" x2="1058.0" y2="476.0" stroke="#777777" stroke-width="1.2" fill="none" stroke-dasharray="4 4" />
<circle cx="1058.0" cy="476.0" r="5" fill="#ff7f0e" stroke="#ffffff" stroke-width="2" opacity="1.0" />
<polygon points="1037.8,462.1 1028.3,452.5 1024.5,464.2" fill="#1f77b4" stroke="#1f77b4" stroke-width="1" opacity="1.0" />
<circle cx="1041.1" cy="463.1" r="2.5" fill="#111111" stroke="#111111" stroke-width="1" opacity="1.0" />
<text x="962.0" y="546.0" font-size="8.4" fill="#333333" font-family="Courier New" xml:space="preserve"><tspan x="962.0" dy="0">target centered</tspan><tspan x="962.0" dy="11">yaw=+18deg</tspan></text>
<rect x="1176.0" y="370.0" width="212.0" height="212.0" rx="6" ry="6" fill="#fcfcfb" stroke="#dddddd" stroke-width="1" opacity="1.0" />
<text x="1282.0" y="388.0" font-size="11" fill="#000" text-anchor="middle" font-weight="bold" font-family="Arial">front 2 rotate</text>
<line x1="1200.0" y1="476.0" x2="1364.0" y2="476.0" stroke="#d9d9d9" stroke-width="0.8" fill="none" />
<line x1="1282.0" y1="394.0" x2="1282.0" y2="558.0" stroke="#d9d9d9" stroke-width="0.8" fill="none" />
<rect x="1186.3" y="459.1" width="51.5" height="33.8" rx="2" ry="2" fill="#d8e7fb" stroke="#777777" stroke-width="1" opacity="0.58" />
<line x1="1237.8" y1="476.0" x2="1282.0" y2="476.0" stroke="#777777" stroke-width="1.2" fill="none" stroke-dasharray="4 4" />
<circle cx="1282.0" cy="476.0" r="5" fill="#ff7f0e" stroke="#ffffff" stroke-width="2" opacity="1.0" />
<line x1="1265.1" y1="463.1" x2="1294.1" y2="476.0" stroke="#1f77b4" stroke-width="1.8" fill="none" stroke-dasharray="6 4" />
<polygon points="1290.9,474.6 1282.4,464.0 1277.4,475.4" fill="#1f77b4" stroke="#1f77b4" stroke-width="1" opacity="0.28" />
<polygon points="1261.9,461.7 1253.5,451.2 1248.4,462.5" fill="#1f77b4" stroke="#1f77b4" stroke-width="1" opacity="1.0" />
<circle cx="1265.1" cy="463.1" r="2.5" fill="#111111" stroke="#111111" stroke-width="1" opacity="1.0" />
<text x="1186.0" y="546.0" font-size="8.4" fill="#333333" font-family="Courier New" xml:space="preserve"><tspan x="1186.0" dy="0">turn=-6.0deg</tspan><tspan x="1186.0" dy="11">faint=after 0.39m</tspan></text>
<rect x="1400.0" y="370.0" width="212.0" height="212.0" rx="6" ry="6" fill="#fcfcfb" stroke="#dddddd" stroke-width="1" opacity="1.0" />
<text x="1506.0" y="388.0" font-size="11" fill="#000" text-anchor="middle" font-weight="bold" font-family="Arial">front 3 move</text>
<line x1="1424.0" y1="476.0" x2="1588.0" y2="476.0" stroke="#d9d9d9" stroke-width="0.8" fill="none" />
<line x1="1506.0" y1="394.0" x2="1506.0" y2="558.0" stroke="#d9d9d9" stroke-width="0.8" fill="none" />
<rect x="1410.3" y="459.1" width="51.5" height="33.8" rx="2" ry="2" fill="#d8e7fb" stroke="#777777" stroke-width="1" opacity="0.58" />
<line x1="1461.8" y1="476.0" x2="1506.0" y2="476.0" stroke="#777777" stroke-width="1.2" fill="none" stroke-dasharray="4 4" />
<circle cx="1506.0" cy="476.0" r="5" fill="#ff7f0e" stroke="#ffffff" stroke-width="2" opacity="1.0" />
<polygon points="1514.9,474.6 1506.4,464.0 1501.4,475.4" fill="#1f77b4" stroke="#1f77b4" stroke-width="1" opacity="1.0" />
<circle cx="1518.1" cy="476.0" r="2.5" fill="#111111" stroke="#111111" stroke-width="1" opacity="1.0" />
<text x="1410.0" y="546.0" font-size="8.4" fill="#333333" font-family="Courier New" xml:space="preserve"><tspan x="1410.0" dy="0">on target x-axis</tspan><tspan x="1410.0" dy="11">move=0.39m</tspan><tspan x="1410.0" dy="11">y_T=-0.000m</tspan></text>
<rect x="1624.0" y="370.0" width="212.0" height="212.0" rx="6" ry="6" fill="#fcfcfb" stroke="#dddddd" stroke-width="1" opacity="1.0" />
<text x="1730.0" y="388.0" font-size="11" fill="#000" text-anchor="middle" font-weight="bold" font-family="Arial">front 4 yaw</text>
<line x1="1648.0" y1="476.0" x2="1812.0" y2="476.0" stroke="#d9d9d9" stroke-width="0.8" fill="none" />
<line x1="1730.0" y1="394.0" x2="1730.0" y2="558.0" stroke="#d9d9d9" stroke-width="0.8" fill="none" />
<rect x="1634.3" y="459.1" width="51.5" height="33.8" rx="2" ry="2" fill="#d8e7fb" stroke="#777777" stroke-width="1" opacity="0.58" />
<line x1="1685.8" y1="476.0" x2="1730.0" y2="476.0" stroke="#777777" stroke-width="1.2" fill="none" stroke-dasharray="4 4" />
<circle cx="1730.0" cy="476.0" r="5" fill="#ff7f0e" stroke="#ffffff" stroke-width="2" opacity="1.0" />
<polygon points="1738.6,476.0 1726.6,469.8 1726.6,482.2" fill="#1f77b4" stroke="#1f77b4" stroke-width="1" opacity="1.0" />
<circle cx="1742.1" cy="476.0" r="2.5" fill="#111111" stroke="#111111" stroke-width="1" opacity="1.0" />
<text x="1634.0" y="546.0" font-size="8.4" fill="#333333" font-family="Courier New" xml:space="preserve"><tspan x="1634.0" dy="0">turn=+24.0deg</tspan><tspan x="1634.0" dy="11">final yaw=+0deg</tspan></text>
<line x1="1842.0" y1="380.0" x2="1842.0" y2="572.0" stroke="#eeeeee" stroke-width="1" fill="none" />
<text x="22.0" y="722.0" font-size="18" fill="#000" text-anchor="middle" font-weight="bold" font-family="Arial">Q3</text>
<text x="22.0" y="744.0" font-size="9" fill="#555555" text-anchor="middle" font-weight="normal" font-family="Arial">x=-0.21</text>
<text x="22.0" y="758.0" font-size="9" fill="#555555" text-anchor="middle" font-weight="normal" font-family="Arial">y=-0.16</text>
<rect x="56.0" y="626.0" width="212.0" height="212.0" rx="6" ry="6" fill="#fcfcfb" stroke="#dddddd" stroke-width="1" opacity="1.0" />
<text x="162.0" y="644.0" font-size="11" fill="#000" text-anchor="middle" font-weight="bold" font-family="Arial">rear 1 start</text>
<line x1="80.0" y1="732.0" x2="244.0" y2="732.0" stroke="#d9d9d9" stroke-width="0.8" fill="none" />
<line x1="162.0" y1="650.0" x2="162.0" y2="814.0" stroke="#d9d9d9" stroke-width="0.8" fill="none" />
<rect x="202.2" y="715.1" width="51.5" height="33.8" rx="2" ry="2" fill="#f7d7d4" stroke="#777777" stroke-width="1" opacity="0.58" />
<line x1="202.2" y1="732.0" x2="162.0" y2="732.0" stroke="#777777" stroke-width="1.2" fill="none" stroke-dasharray="4 4" />
<circle cx="162.0" cy="732.0" r="5" fill="#ff7f0e" stroke="#ffffff" stroke-width="2" opacity="1.0" />
<polygon points="141.8,745.9 128.5,743.8 132.3,755.5" fill="#d62728" stroke="#d62728" stroke-width="1" opacity="1.0" />
<circle cx="145.1" cy="744.9" r="2.5" fill="#111111" stroke="#111111" stroke-width="1" opacity="1.0" />
<text x="66.0" y="802.0" font-size="8.4" fill="#333333" font-family="Courier New" xml:space="preserve"><tspan x="66.0" dy="0">target centered</tspan><tspan x="66.0" dy="11">yaw=-18deg</tspan></text>
<rect x="280.0" y="626.0" width="212.0" height="212.0" rx="6" ry="6" fill="#fcfcfb" stroke="#dddddd" stroke-width="1" opacity="1.0" />
<text x="386.0" y="644.0" font-size="11" fill="#000" text-anchor="middle" font-weight="bold" font-family="Arial">rear 2 rotate</text>
<line x1="304.0" y1="732.0" x2="468.0" y2="732.0" stroke="#d9d9d9" stroke-width="0.8" fill="none" />
<line x1="386.0" y1="650.0" x2="386.0" y2="814.0" stroke="#d9d9d9" stroke-width="0.8" fill="none" />
<rect x="426.2" y="715.1" width="51.5" height="33.8" rx="2" ry="2" fill="#f7d7d4" stroke="#777777" stroke-width="1" opacity="0.58" />
<line x1="426.2" y1="732.0" x2="386.0" y2="732.0" stroke="#777777" stroke-width="1.2" fill="none" stroke-dasharray="4 4" />
<circle cx="386.0" cy="732.0" r="5" fill="#ff7f0e" stroke="#ffffff" stroke-width="2" opacity="1.0" />
<line x1="369.1" y1="744.9" x2="369.1" y2="732.0" stroke="#d62728" stroke-width="1.8" fill="none" stroke-dasharray="6 4" />
<polygon points="369.1,735.5 362.9,747.5 375.3,747.5" fill="#d62728" stroke="#d62728" stroke-width="1" opacity="0.28" />
<polygon points="369.1,748.4 362.9,760.4 375.3,760.4" fill="#d62728" stroke="#d62728" stroke-width="1" opacity="1.0" />
<circle cx="369.1" cy="744.9" r="2.5" fill="#111111" stroke="#111111" stroke-width="1" opacity="1.0" />
<text x="290.0" y="802.0" font-size="8.4" fill="#333333" font-family="Courier New" xml:space="preserve"><tspan x="290.0" dy="0">turn=+72.0deg</tspan><tspan x="290.0" dy="11">faint=after 0.16m</tspan></text>
<rect x="504.0" y="626.0" width="212.0" height="212.0" rx="6" ry="6" fill="#fcfcfb" stroke="#dddddd" stroke-width="1" opacity="1.0" />
<text x="610.0" y="644.0" font-size="11" fill="#000" text-anchor="middle" font-weight="bold" font-family="Arial">rear 3 move</text>
<line x1="528.0" y1="732.0" x2="692.0" y2="732.0" stroke="#d9d9d9" stroke-width="0.8" fill="none" />
<line x1="610.0" y1="650.0" x2="610.0" y2="814.0" stroke="#d9d9d9" stroke-width="0.8" fill="none" />
<rect x="650.2" y="715.1" width="51.5" height="33.8" rx="2" ry="2" fill="#f7d7d4" stroke="#777777" stroke-width="1" opacity="0.58" />
<line x1="650.2" y1="732.0" x2="610.0" y2="732.0" stroke="#777777" stroke-width="1.2" fill="none" stroke-dasharray="4 4" />
<circle cx="610.0" cy="732.0" r="5" fill="#ff7f0e" stroke="#ffffff" stroke-width="2" opacity="1.0" />
<polygon points="593.1,735.5 586.9,747.5 599.3,747.5" fill="#d62728" stroke="#d62728" stroke-width="1" opacity="1.0" />
<circle cx="593.1" cy="732.0" r="2.5" fill="#111111" stroke="#111111" stroke-width="1" opacity="1.0" />
<text x="514.0" y="802.0" font-size="8.4" fill="#333333" font-family="Courier New" xml:space="preserve"><tspan x="514.0" dy="0">on target x-axis</tspan><tspan x="514.0" dy="11">move=0.16m</tspan><tspan x="514.0" dy="11">y_T=-0.000m</tspan></text>
<rect x="728.0" y="626.0" width="212.0" height="212.0" rx="6" ry="6" fill="#fcfcfb" stroke="#dddddd" stroke-width="1" opacity="1.0" />
<text x="834.0" y="644.0" font-size="11" fill="#000" text-anchor="middle" font-weight="bold" font-family="Arial">rear 4 yaw</text>
<line x1="752.0" y1="732.0" x2="916.0" y2="732.0" stroke="#d9d9d9" stroke-width="0.8" fill="none" />
<line x1="834.0" y1="650.0" x2="834.0" y2="814.0" stroke="#d9d9d9" stroke-width="0.8" fill="none" />
<rect x="874.2" y="715.1" width="51.5" height="33.8" rx="2" ry="2" fill="#f7d7d4" stroke="#777777" stroke-width="1" opacity="0.58" />
<line x1="874.2" y1="732.0" x2="834.0" y2="732.0" stroke="#777777" stroke-width="1.2" fill="none" stroke-dasharray="4 4" />
<circle cx="834.0" cy="732.0" r="5" fill="#ff7f0e" stroke="#ffffff" stroke-width="2" opacity="1.0" />
<polygon points="813.6,732.0 801.6,725.8 801.6,738.2" fill="#d62728" stroke="#d62728" stroke-width="1" opacity="1.0" />
<circle cx="817.1" cy="732.0" r="2.5" fill="#111111" stroke="#111111" stroke-width="1" opacity="1.0" />
<text x="738.0" y="802.0" font-size="8.4" fill="#333333" font-family="Courier New" xml:space="preserve"><tspan x="738.0" dy="0">turn=-90.0deg</tspan><tspan x="738.0" dy="11">final yaw=+0deg</tspan></text>
<line x1="946.0" y1="636.0" x2="946.0" y2="828.0" stroke="#eeeeee" stroke-width="1" fill="none" />
<rect x="952.0" y="626.0" width="212.0" height="212.0" rx="6" ry="6" fill="#fcfcfb" stroke="#dddddd" stroke-width="1" opacity="1.0" />
<text x="1058.0" y="644.0" font-size="11" fill="#000" text-anchor="middle" font-weight="bold" font-family="Arial">front 1 start</text>
<line x1="976.0" y1="732.0" x2="1140.0" y2="732.0" stroke="#d9d9d9" stroke-width="0.8" fill="none" />
<line x1="1058.0" y1="650.0" x2="1058.0" y2="814.0" stroke="#d9d9d9" stroke-width="0.8" fill="none" />
<rect x="962.3" y="715.1" width="51.5" height="33.8" rx="2" ry="2" fill="#d8e7fb" stroke="#777777" stroke-width="1" opacity="0.58" />
<line x1="1013.8" y1="732.0" x2="1058.0" y2="732.0" stroke="#777777" stroke-width="1.2" fill="none" stroke-dasharray="4 4" />
<circle cx="1058.0" cy="732.0" r="5" fill="#ff7f0e" stroke="#ffffff" stroke-width="2" opacity="1.0" />
<polygon points="1037.8,745.9 1024.5,743.8 1028.3,755.5" fill="#1f77b4" stroke="#1f77b4" stroke-width="1" opacity="1.0" />
<circle cx="1041.1" cy="744.9" r="2.5" fill="#111111" stroke="#111111" stroke-width="1" opacity="1.0" />
<text x="962.0" y="802.0" font-size="8.4" fill="#333333" font-family="Courier New" xml:space="preserve"><tspan x="962.0" dy="0">target centered</tspan><tspan x="962.0" dy="11">yaw=-18deg</tspan></text>
<rect x="1176.0" y="626.0" width="212.0" height="212.0" rx="6" ry="6" fill="#fcfcfb" stroke="#dddddd" stroke-width="1" opacity="1.0" />
<text x="1282.0" y="644.0" font-size="11" fill="#000" text-anchor="middle" font-weight="bold" font-family="Arial">front 2 rotate</text>
<line x1="1200.0" y1="732.0" x2="1364.0" y2="732.0" stroke="#d9d9d9" stroke-width="0.8" fill="none" />
<line x1="1282.0" y1="650.0" x2="1282.0" y2="814.0" stroke="#d9d9d9" stroke-width="0.8" fill="none" />
<rect x="1186.3" y="715.1" width="51.5" height="33.8" rx="2" ry="2" fill="#d8e7fb" stroke="#777777" stroke-width="1" opacity="0.58" />
<line x1="1237.8" y1="732.0" x2="1282.0" y2="732.0" stroke="#777777" stroke-width="1.2" fill="none" stroke-dasharray="4 4" />
<circle cx="1282.0" cy="732.0" r="5" fill="#ff7f0e" stroke="#ffffff" stroke-width="2" opacity="1.0" />
<line x1="1265.1" y1="744.9" x2="1294.1" y2="732.0" stroke="#1f77b4" stroke-width="1.8" fill="none" stroke-dasharray="6 4" />
<polygon points="1290.9,733.4 1277.4,732.6 1282.4,744.0" fill="#1f77b4" stroke="#1f77b4" stroke-width="1" opacity="0.28" />
<polygon points="1261.9,746.3 1248.4,745.5 1253.5,756.8" fill="#1f77b4" stroke="#1f77b4" stroke-width="1" opacity="1.0" />
<circle cx="1265.1" cy="744.9" r="2.5" fill="#111111" stroke="#111111" stroke-width="1" opacity="1.0" />
<text x="1186.0" y="802.0" font-size="8.4" fill="#333333" font-family="Courier New" xml:space="preserve"><tspan x="1186.0" dy="0">turn=+6.0deg</tspan><tspan x="1186.0" dy="11">faint=after 0.39m</tspan></text>
<rect x="1400.0" y="626.0" width="212.0" height="212.0" rx="6" ry="6" fill="#fcfcfb" stroke="#dddddd" stroke-width="1" opacity="1.0" />
<text x="1506.0" y="644.0" font-size="11" fill="#000" text-anchor="middle" font-weight="bold" font-family="Arial">front 3 move</text>
<line x1="1424.0" y1="732.0" x2="1588.0" y2="732.0" stroke="#d9d9d9" stroke-width="0.8" fill="none" />
<line x1="1506.0" y1="650.0" x2="1506.0" y2="814.0" stroke="#d9d9d9" stroke-width="0.8" fill="none" />
<rect x="1410.3" y="715.1" width="51.5" height="33.8" rx="2" ry="2" fill="#d8e7fb" stroke="#777777" stroke-width="1" opacity="0.58" />
<line x1="1461.8" y1="732.0" x2="1506.0" y2="732.0" stroke="#777777" stroke-width="1.2" fill="none" stroke-dasharray="4 4" />
<circle cx="1506.0" cy="732.0" r="5" fill="#ff7f0e" stroke="#ffffff" stroke-width="2" opacity="1.0" />
<polygon points="1514.9,733.4 1501.4,732.6 1506.4,744.0" fill="#1f77b4" stroke="#1f77b4" stroke-width="1" opacity="1.0" />
<circle cx="1518.1" cy="732.0" r="2.5" fill="#111111" stroke="#111111" stroke-width="1" opacity="1.0" />
<text x="1410.0" y="802.0" font-size="8.4" fill="#333333" font-family="Courier New" xml:space="preserve"><tspan x="1410.0" dy="0">on target x-axis</tspan><tspan x="1410.0" dy="11">move=0.39m</tspan><tspan x="1410.0" dy="11">y_T=+0.000m</tspan></text>
<rect x="1624.0" y="626.0" width="212.0" height="212.0" rx="6" ry="6" fill="#fcfcfb" stroke="#dddddd" stroke-width="1" opacity="1.0" />
<text x="1730.0" y="644.0" font-size="11" fill="#000" text-anchor="middle" font-weight="bold" font-family="Arial">front 4 yaw</text>
<line x1="1648.0" y1="732.0" x2="1812.0" y2="732.0" stroke="#d9d9d9" stroke-width="0.8" fill="none" />
<line x1="1730.0" y1="650.0" x2="1730.0" y2="814.0" stroke="#d9d9d9" stroke-width="0.8" fill="none" />
<rect x="1634.3" y="715.1" width="51.5" height="33.8" rx="2" ry="2" fill="#d8e7fb" stroke="#777777" stroke-width="1" opacity="0.58" />
<line x1="1685.8" y1="732.0" x2="1730.0" y2="732.0" stroke="#777777" stroke-width="1.2" fill="none" stroke-dasharray="4 4" />
<circle cx="1730.0" cy="732.0" r="5" fill="#ff7f0e" stroke="#ffffff" stroke-width="2" opacity="1.0" />
<polygon points="1738.6,732.0 1726.6,725.8 1726.6,738.2" fill="#1f77b4" stroke="#1f77b4" stroke-width="1" opacity="1.0" />
<circle cx="1742.1" cy="732.0" r="2.5" fill="#111111" stroke="#111111" stroke-width="1" opacity="1.0" />
<text x="1634.0" y="802.0" font-size="8.4" fill="#333333" font-family="Courier New" xml:space="preserve"><tspan x="1634.0" dy="0">turn=-24.0deg</tspan><tspan x="1634.0" dy="11">final yaw=+0deg</tspan></text>
<line x1="1842.0" y1="636.0" x2="1842.0" y2="828.0" stroke="#eeeeee" stroke-width="1" fill="none" />
<text x="22.0" y="978.0" font-size="18" fill="#000" text-anchor="middle" font-weight="bold" font-family="Arial">Q4</text>
<text x="22.0" y="1000.0" font-size="9" fill="#555555" text-anchor="middle" font-weight="normal" font-family="Arial">x=+0.21</text>
<text x="22.0" y="1014.0" font-size="9" fill="#555555" text-anchor="middle" font-weight="normal" font-family="Arial">y=-0.16</text>
<rect x="56.0" y="882.0" width="212.0" height="212.0" rx="6" ry="6" fill="#fcfcfb" stroke="#dddddd" stroke-width="1" opacity="1.0" />
<text x="162.0" y="900.0" font-size="11" fill="#000" text-anchor="middle" font-weight="bold" font-family="Arial">rear 1 start</text>
<line x1="80.0" y1="988.0" x2="244.0" y2="988.0" stroke="#d9d9d9" stroke-width="0.8" fill="none" />
<line x1="162.0" y1="906.0" x2="162.0" y2="1070.0" stroke="#d9d9d9" stroke-width="0.8" fill="none" />
<rect x="202.2" y="971.1" width="51.5" height="33.8" rx="2" ry="2" fill="#f7d7d4" stroke="#777777" stroke-width="1" opacity="0.58" />
<line x1="202.2" y1="988.0" x2="162.0" y2="988.0" stroke="#777777" stroke-width="1.2" fill="none" stroke-dasharray="4 4" />
<circle cx="162.0" cy="988.0" r="5" fill="#ff7f0e" stroke="#ffffff" stroke-width="2" opacity="1.0" />
<polygon points="175.6,1001.9 162.2,999.8 166.1,1011.5" fill="#d62728" stroke="#d62728" stroke-width="1" opacity="1.0" />
<circle cx="178.9" cy="1000.9" r="2.5" fill="#111111" stroke="#111111" stroke-width="1" opacity="1.0" />
<text x="66.0" y="1058.0" font-size="8.4" fill="#333333" font-family="Courier New" xml:space="preserve"><tspan x="66.0" dy="0">target centered</tspan><tspan x="66.0" dy="11">yaw=-18deg</tspan></text>
<rect x="280.0" y="882.0" width="212.0" height="212.0" rx="6" ry="6" fill="#fcfcfb" stroke="#dddddd" stroke-width="1" opacity="1.0" />
<text x="386.0" y="900.0" font-size="11" fill="#000" text-anchor="middle" font-weight="bold" font-family="Arial">rear 2 rotate</text>
<line x1="304.0" y1="988.0" x2="468.0" y2="988.0" stroke="#d9d9d9" stroke-width="0.8" fill="none" />
<line x1="386.0" y1="906.0" x2="386.0" y2="1070.0" stroke="#d9d9d9" stroke-width="0.8" fill="none" />
<rect x="426.2" y="971.1" width="51.5" height="33.8" rx="2" ry="2" fill="#f7d7d4" stroke="#777777" stroke-width="1" opacity="0.58" />
<line x1="426.2" y1="988.0" x2="386.0" y2="988.0" stroke="#777777" stroke-width="1.2" fill="none" stroke-dasharray="4 4" />
<circle cx="386.0" cy="988.0" r="5" fill="#ff7f0e" stroke="#ffffff" stroke-width="2" opacity="1.0" />
<line x1="402.9" y1="1000.9" x2="386.0" y2="988.0" stroke="#d62728" stroke-width="1.8" fill="none" stroke-dasharray="6 4" />
<polygon points="383.2,985.9 377.4,973.7 369.9,983.5" fill="#d62728" stroke="#d62728" stroke-width="1" opacity="0.28" />
<polygon points="400.1,998.7 394.3,986.5 386.8,996.4" fill="#d62728" stroke="#d62728" stroke-width="1" opacity="1.0" />
<circle cx="402.9" cy="1000.9" r="2.5" fill="#111111" stroke="#111111" stroke-width="1" opacity="1.0" />
<text x="290.0" y="1058.0" font-size="8.4" fill="#333333" font-family="Courier New" xml:space="preserve"><tspan x="290.0" dy="0">turn=-55.3deg</tspan><tspan x="290.0" dy="11">faint=after 0.26m</tspan></text>
<rect x="504.0" y="882.0" width="212.0" height="212.0" rx="6" ry="6" fill="#fcfcfb" stroke="#dddddd" stroke-width="1" opacity="1.0" />
<text x="610.0" y="900.0" font-size="11" fill="#000" text-anchor="middle" font-weight="bold" font-family="Arial">rear 3 move</text>
<line x1="528.0" y1="988.0" x2="692.0" y2="988.0" stroke="#d9d9d9" stroke-width="0.8" fill="none" />
<line x1="610.0" y1="906.0" x2="610.0" y2="1070.0" stroke="#d9d9d9" stroke-width="0.8" fill="none" />
<rect x="650.2" y="971.1" width="51.5" height="33.8" rx="2" ry="2" fill="#f7d7d4" stroke="#777777" stroke-width="1" opacity="0.58" />
<line x1="650.2" y1="988.0" x2="610.0" y2="988.0" stroke="#777777" stroke-width="1.2" fill="none" stroke-dasharray="4 4" />
<circle cx="610.0" cy="988.0" r="5" fill="#ff7f0e" stroke="#ffffff" stroke-width="2" opacity="1.0" />
<polygon points="607.2,985.9 601.4,973.7 593.9,983.5" fill="#d62728" stroke="#d62728" stroke-width="1" opacity="1.0" />
<circle cx="610.0" cy="988.0" r="2.5" fill="#111111" stroke="#111111" stroke-width="1" opacity="1.0" />
<text x="514.0" y="1058.0" font-size="8.4" fill="#333333" font-family="Courier New" xml:space="preserve"><tspan x="514.0" dy="0">on target x-axis</tspan><tspan x="514.0" dy="11">move=0.26m</tspan><tspan x="514.0" dy="11">y_T=+0.000m</tspan></text>
<rect x="728.0" y="882.0" width="212.0" height="212.0" rx="6" ry="6" fill="#fcfcfb" stroke="#dddddd" stroke-width="1" opacity="1.0" />
<text x="834.0" y="900.0" font-size="11" fill="#000" text-anchor="middle" font-weight="bold" font-family="Arial">rear 4 yaw</text>
<line x1="752.0" y1="988.0" x2="916.0" y2="988.0" stroke="#d9d9d9" stroke-width="0.8" fill="none" />
<line x1="834.0" y1="906.0" x2="834.0" y2="1070.0" stroke="#d9d9d9" stroke-width="0.8" fill="none" />
<rect x="874.2" y="971.1" width="51.5" height="33.8" rx="2" ry="2" fill="#f7d7d4" stroke="#777777" stroke-width="1" opacity="0.58" />
<line x1="874.2" y1="988.0" x2="834.0" y2="988.0" stroke="#777777" stroke-width="1.2" fill="none" stroke-dasharray="4 4" />
<circle cx="834.0" cy="988.0" r="5" fill="#ff7f0e" stroke="#ffffff" stroke-width="2" opacity="1.0" />
<polygon points="830.5,988.0 818.5,981.8 818.5,994.2" fill="#d62728" stroke="#d62728" stroke-width="1" opacity="1.0" />
<circle cx="834.0" cy="988.0" r="2.5" fill="#111111" stroke="#111111" stroke-width="1" opacity="1.0" />
<text x="738.0" y="1058.0" font-size="8.4" fill="#333333" font-family="Courier New" xml:space="preserve"><tspan x="738.0" dy="0">turn=+37.3deg</tspan><tspan x="738.0" dy="11">final yaw=+0deg</tspan></text>
<line x1="946.0" y1="892.0" x2="946.0" y2="1084.0" stroke="#eeeeee" stroke-width="1" fill="none" />
<rect x="952.0" y="882.0" width="212.0" height="212.0" rx="6" ry="6" fill="#fcfcfb" stroke="#dddddd" stroke-width="1" opacity="1.0" />
<text x="1058.0" y="900.0" font-size="11" fill="#000" text-anchor="middle" font-weight="bold" font-family="Arial">front 1 start</text>
<line x1="976.0" y1="988.0" x2="1140.0" y2="988.0" stroke="#d9d9d9" stroke-width="0.8" fill="none" />
<line x1="1058.0" y1="906.0" x2="1058.0" y2="1070.0" stroke="#d9d9d9" stroke-width="0.8" fill="none" />
<rect x="962.3" y="971.1" width="51.5" height="33.8" rx="2" ry="2" fill="#d8e7fb" stroke="#777777" stroke-width="1" opacity="0.58" />
<line x1="1013.8" y1="988.0" x2="1058.0" y2="988.0" stroke="#777777" stroke-width="1.2" fill="none" stroke-dasharray="4 4" />
<circle cx="1058.0" cy="988.0" r="5" fill="#ff7f0e" stroke="#ffffff" stroke-width="2" opacity="1.0" />
<polygon points="1071.6,1001.9 1058.2,999.8 1062.1,1011.5" fill="#1f77b4" stroke="#1f77b4" stroke-width="1" opacity="1.0" />
<circle cx="1074.9" cy="1000.9" r="2.5" fill="#111111" stroke="#111111" stroke-width="1" opacity="1.0" />
<text x="962.0" y="1058.0" font-size="8.4" fill="#333333" font-family="Courier New" xml:space="preserve"><tspan x="962.0" dy="0">target centered</tspan><tspan x="962.0" dy="11">yaw=-18deg</tspan></text>
<rect x="1176.0" y="882.0" width="212.0" height="212.0" rx="6" ry="6" fill="#fcfcfb" stroke="#dddddd" stroke-width="1" opacity="1.0" />
<text x="1282.0" y="900.0" font-size="11" fill="#000" text-anchor="middle" font-weight="bold" font-family="Arial">front 2 rotate</text>
<line x1="1200.0" y1="988.0" x2="1364.0" y2="988.0" stroke="#d9d9d9" stroke-width="0.8" fill="none" />
<line x1="1282.0" y1="906.0" x2="1282.0" y2="1070.0" stroke="#d9d9d9" stroke-width="0.8" fill="none" />
<rect x="1186.3" y="971.1" width="51.5" height="33.8" rx="2" ry="2" fill="#d8e7fb" stroke="#777777" stroke-width="1" opacity="0.58" />
<line x1="1237.8" y1="988.0" x2="1282.0" y2="988.0" stroke="#777777" stroke-width="1.2" fill="none" stroke-dasharray="4 4" />
<circle cx="1282.0" cy="988.0" r="5" fill="#ff7f0e" stroke="#ffffff" stroke-width="2" opacity="1.0" />
<line x1="1298.9" y1="1000.9" x2="1298.9" y2="988.0" stroke="#1f77b4" stroke-width="1.8" fill="none" stroke-dasharray="6 4" />
<polygon points="1298.9,991.5 1292.7,1003.5 1305.1,1003.5" fill="#1f77b4" stroke="#1f77b4" stroke-width="1" opacity="0.28" />
<polygon points="1298.9,1004.4 1292.7,1016.4 1305.1,1016.4" fill="#1f77b4" stroke="#1f77b4" stroke-width="1" opacity="1.0" />
<circle cx="1298.9" cy="1000.9" r="2.5" fill="#111111" stroke="#111111" stroke-width="1" opacity="1.0" />
<text x="1186.0" y="1058.0" font-size="8.4" fill="#333333" font-family="Courier New" xml:space="preserve"><tspan x="1186.0" dy="0">turn=+72.0deg</tspan><tspan x="1186.0" dy="11">faint=after 0.16m</tspan></text>
<rect x="1400.0" y="882.0" width="212.0" height="212.0" rx="6" ry="6" fill="#fcfcfb" stroke="#dddddd" stroke-width="1" opacity="1.0" />
<text x="1506.0" y="900.0" font-size="11" fill="#000" text-anchor="middle" font-weight="bold" font-family="Arial">front 3 move</text>
<line x1="1424.0" y1="988.0" x2="1588.0" y2="988.0" stroke="#d9d9d9" stroke-width="0.8" fill="none" />
<line x1="1506.0" y1="906.0" x2="1506.0" y2="1070.0" stroke="#d9d9d9" stroke-width="0.8" fill="none" />
<rect x="1410.3" y="971.1" width="51.5" height="33.8" rx="2" ry="2" fill="#d8e7fb" stroke="#777777" stroke-width="1" opacity="0.58" />
<line x1="1461.8" y1="988.0" x2="1506.0" y2="988.0" stroke="#777777" stroke-width="1.2" fill="none" stroke-dasharray="4 4" />
<circle cx="1506.0" cy="988.0" r="5" fill="#ff7f0e" stroke="#ffffff" stroke-width="2" opacity="1.0" />
<polygon points="1522.9,991.5 1516.7,1003.5 1529.1,1003.5" fill="#1f77b4" stroke="#1f77b4" stroke-width="1" opacity="1.0" />
<circle cx="1522.9" cy="988.0" r="2.5" fill="#111111" stroke="#111111" stroke-width="1" opacity="1.0" />
<text x="1410.0" y="1058.0" font-size="8.4" fill="#333333" font-family="Courier New" xml:space="preserve"><tspan x="1410.0" dy="0">on target x-axis</tspan><tspan x="1410.0" dy="11">move=0.16m</tspan><tspan x="1410.0" dy="11">y_T=-0.000m</tspan></text>
<rect x="1624.0" y="882.0" width="212.0" height="212.0" rx="6" ry="6" fill="#fcfcfb" stroke="#dddddd" stroke-width="1" opacity="1.0" />
<text x="1730.0" y="900.0" font-size="11" fill="#000" text-anchor="middle" font-weight="bold" font-family="Arial">front 4 yaw</text>
<line x1="1648.0" y1="988.0" x2="1812.0" y2="988.0" stroke="#d9d9d9" stroke-width="0.8" fill="none" />
<line x1="1730.0" y1="906.0" x2="1730.0" y2="1070.0" stroke="#d9d9d9" stroke-width="0.8" fill="none" />
<rect x="1634.3" y="971.1" width="51.5" height="33.8" rx="2" ry="2" fill="#d8e7fb" stroke="#777777" stroke-width="1" opacity="0.58" />
<line x1="1685.8" y1="988.0" x2="1730.0" y2="988.0" stroke="#777777" stroke-width="1.2" fill="none" stroke-dasharray="4 4" />
<circle cx="1730.0" cy="988.0" r="5" fill="#ff7f0e" stroke="#ffffff" stroke-width="2" opacity="1.0" />
<polygon points="1743.4,988.0 1731.4,981.8 1731.4,994.2" fill="#1f77b4" stroke="#1f77b4" stroke-width="1" opacity="1.0" />
<circle cx="1746.9" cy="988.0" r="2.5" fill="#111111" stroke="#111111" stroke-width="1" opacity="1.0" />
<text x="1634.0" y="1058.0" font-size="8.4" fill="#333333" font-family="Courier New" xml:space="preserve"><tspan x="1634.0" dy="0">turn=-90.0deg</tspan><tspan x="1634.0" dy="11">final yaw=+0deg</tspan></text>
<line x1="1842.0" y1="892.0" x2="1842.0" y2="1084.0" stroke="#eeeeee" stroke-width="1" fill="none" />
</svg>